<svg width="41" height="40" viewBox="0 0 41 40" fill="none" xmlns="http://www.w3.org/2000/svg">
<g clip-path="url(#clip0)">
<path d="M20.0871 13.6895V4.00668C20.0871 2.33723 21.4307 1.00167 23.1102 1.00167C24.7898 1.00167 26.1334 2.33723 26.1334 4.00668V5.67613C26.1334 7.14524 27.3426 8.34725 28.8206 8.34725C30.2986 8.34725 31.5078 7.14524 31.5078 5.67613V0.333893" stroke="#839594" stroke-width="2" stroke-miterlimit="10"/>
<path d="M8.86789 27.0451C5.97911 27.0451 3.42624 25.5092 2.01544 23.1719L1.14209 35.0584C1.14209 37.596 3.2247 39.7329 5.84475 39.7329C7.92736 39.7329 9.74124 38.3973 10.3459 36.394L14.108 25.1085C12.63 26.3105 10.8161 27.0451 8.86789 27.0451Z" fill="#F3F3F3"/>
<path d="M31.5079 27.0451C34.3967 27.0451 36.9496 25.5092 38.3604 23.1719L39.1665 35.0584C39.1665 37.596 37.0839 39.7329 34.4639 39.7329C32.3813 39.7329 30.5674 38.3973 29.9628 36.394L26.2006 25.1085C27.6786 26.3105 29.4925 27.0451 31.5079 27.0451Z" fill="#F3F3F3"/>
<path d="M20.1535 28.3806C20.0867 28.1803 20.0867 27.9132 20.0867 27.7128C20.0867 27.9132 20.0867 28.1803 20.0199 28.3806H20.1535Z" fill="#38454F"/>
<path d="M26.6708 26.3105L26.2677 25.1753C26.3349 25.2421 26.4021 25.2421 26.4693 25.3088C24.6554 23.8397 23.4461 21.636 23.4461 19.0985C23.4461 16.6945 24.521 14.5576 26.2006 13.0885H14.2424C15.9219 14.5576 16.9968 16.6945 16.9968 19.0985C16.9968 21.5025 15.9219 23.6394 14.2424 25.1085C14.3096 25.1753 14.3767 25.3088 14.3767 25.3756C14.9814 24.7746 15.7875 24.3739 16.7281 24.3739C18.5419 24.3739 20.0199 25.8431 20.0871 27.5793C20.1543 25.7763 21.6323 24.3739 23.4461 24.3739C24.7898 24.3739 25.999 25.1753 26.5365 26.3773C26.6036 26.3105 26.6036 26.3105 26.6708 26.3105Z" fill="#F3F3F3"/>
<path d="M8.73352 27.7129C13.5569 27.7129 17.467 23.8262 17.467 19.0317C17.467 14.2373 13.5569 10.3506 8.73352 10.3506C3.91013 10.3506 0 14.2373 0 19.0317C0 23.8262 3.91013 27.7129 8.73352 27.7129Z" fill="#F4F4F4"/>
<path d="M31.5749 27.7129C36.3983 27.7129 40.3085 23.8262 40.3085 19.0317C40.3085 14.2373 36.3983 10.3506 31.5749 10.3506C26.7516 10.3506 22.8414 14.2373 22.8414 19.0317C22.8414 23.8262 26.7516 27.7129 31.5749 27.7129Z" fill="#F4F4F4"/>
<path d="M16.728 31.0518C18.5832 31.0518 20.0871 29.5569 20.0871 27.7129C20.0871 25.8688 18.5832 24.374 16.728 24.374C14.8729 24.374 13.369 25.8688 13.369 27.7129C13.369 29.5569 14.8729 31.0518 16.728 31.0518Z" fill="#283238"/>
<path d="M23.4461 31.0518C25.3013 31.0518 26.8052 29.5569 26.8052 27.7129C26.8052 25.8688 25.3013 24.374 23.4461 24.374C21.591 24.374 20.0871 25.8688 20.0871 27.7129C20.0871 29.5569 21.591 31.0518 23.4461 31.0518Z" fill="#283238"/>
<path d="M19.4152 16.3606H20.7588" stroke="#AFB6BB" stroke-width="2" stroke-miterlimit="10" stroke-linecap="round"/>
<path d="M35.8745 20.3673C36.8021 20.3673 37.5541 19.6198 37.5541 18.6978C37.5541 17.7758 36.8021 17.0284 35.8745 17.0284C34.947 17.0284 34.195 17.7758 34.195 18.6978C34.195 19.6198 34.947 20.3673 35.8745 20.3673Z" stroke="#DD352E" stroke-width="2" stroke-miterlimit="10"/>
<path d="M27.1411 20.3673C28.0686 20.3673 28.8206 19.6198 28.8206 18.6978C28.8206 17.7758 28.0686 17.0284 27.1411 17.0284C26.2135 17.0284 25.4615 17.7758 25.4615 18.6978C25.4615 19.6198 26.2135 20.3673 27.1411 20.3673Z" stroke="#BF4D90" stroke-width="2" stroke-miterlimit="10"/>
<path d="M12.2269 17.6962H10.0099V15.4925C10.0099 15.2254 9.80837 15.0251 9.53964 15.0251H7.79294C7.52422 15.0251 7.32267 15.2254 7.32267 15.4925V17.6962H5.1057C4.83698 17.6962 4.63544 17.8965 4.63544 18.1636V19.8998C4.63544 20.167 4.83698 20.3673 5.1057 20.3673H7.32267V22.571C7.32267 22.8381 7.52422 23.0384 7.79294 23.0384H9.53964C9.80837 23.0384 10.0099 22.8381 10.0099 22.571V20.3673H12.2269C12.4956 20.3673 12.6971 20.167 12.6971 19.8998V18.1636C12.6971 17.8965 12.4956 17.6962 12.2269 17.6962Z" fill="#283238" stroke="#38454F" stroke-width="2" stroke-miterlimit="10" stroke-linecap="round"/>
<path d="M31.5078 24.0401C32.4354 24.0401 33.1873 23.2926 33.1873 22.3706C33.1873 21.4486 32.4354 20.7012 31.5078 20.7012C30.5803 20.7012 29.8283 21.4486 29.8283 22.3706C29.8283 23.2926 30.5803 24.0401 31.5078 24.0401Z" stroke="#5D7BDB" stroke-width="2" stroke-miterlimit="10"/>
<path d="M31.5078 16.6945C32.4354 16.6945 33.1873 15.9471 33.1873 15.025C33.1873 14.103 32.4354 13.3556 31.5078 13.3556C30.5803 13.3556 29.8283 14.103 29.8283 15.025C29.8283 15.9471 30.5803 16.6945 31.5078 16.6945Z" stroke="#20BEE2" stroke-width="2" stroke-miterlimit="10"/>
</g>
<defs>
<clipPath id="clip0">
<rect width="40.2414" height="40" fill="white"/>
</clipPath>
</defs>
</svg>
